<?xml version="1.0" standalone="no"?>
<!DOCTYPE svg PUBLIC "-//W3C//DTD SVG 20010904//EN"
 "http://www.w3.org/TR/2001/REC-SVG-20010904/DTD/svg10.dtd">
<svg version="1.0" xmlns="http://www.w3.org/2000/svg"
 width="400.000000pt" height="400.000000pt" viewBox="0 0 400.000000 400.000000"
 preserveAspectRatio="xMidYMid meet">
<metadata>
Created by potrace 1.11, written by Peter Selinger 2001-2013
</metadata>
<g transform="translate(0.000000,400.000000) scale(0.100000,-0.100000)"
fill="#000000" stroke="none">
<path d="M1725 3991 c-22 -5 -58 -11 -80 -15 -94 -16 -147 -29 -265 -66 -69
-22 -135 -46 -145 -55 -11 -8 -27 -15 -35 -15 -8 0 -35 -11 -60 -24 -25 -13
-69 -35 -99 -50 -29 -15 -65 -35 -80 -45 -14 -10 -59 -40 -100 -67 -40 -27
-83 -59 -95 -71 -11 -13 -25 -23 -29 -23 -5 0 -21 -12 -36 -27 -15 -16 -57
-55 -94 -88 -37 -33 -67 -66 -67 -72 0 -7 -6 -13 -14 -13 -8 0 -17 -9 -21 -20
-3 -11 -16 -28 -28 -37 -39 -33 -177 -223 -177 -245 0 -6 -7 -16 -15 -22 -19
-14 -125 -224 -125 -247 0 -10 -4 -20 -9 -23 -10 -6 -38 -84 -76 -206 -28 -94
-33 -114 -41 -180 -3 -25 -11 -83 -19 -130 -13 -84 -13 -410 -1 -475 11 -54
16 -92 22 -146 3 -30 19 -93 35 -140 16 -48 29 -92 29 -99 0 -13 65 -182 81
-213 6 -10 23 -44 40 -77 46 -91 154 -263 189 -301 8 -8 41 -47 72 -85 96
-117 351 -341 410 -360 10 -3 18 -9 18 -14 0 -5 25 -21 55 -35 30 -15 59 -33
66 -41 6 -8 15 -14 20 -14 5 0 37 -14 71 -31 89 -44 253 -108 318 -124 30 -7
91 -23 135 -34 44 -11 118 -24 165 -28 106 -10 398 -10 507 -1 100 9 360 72
428 104 28 13 60 25 70 27 27 4 219 98 223 108 2 5 10 9 17 9 14 0 149 87 201
129 18 14 47 37 65 51 152 112 370 364 464 534 80 145 176 361 191 431 3 17
14 59 25 95 23 82 29 111 35 180 3 30 8 66 10 80 10 44 13 383 5 435 -5 28
-12 79 -15 115 -9 87 -69 314 -105 400 -17 39 -28 70 -26 70 5 0 -92 190 -120
236 -42 67 -119 180 -130 189 -6 6 -16 17 -21 27 -8 15 -106 128 -145 167 -18
19 -129 117 -179 158 -19 16 -57 45 -85 63 -27 19 -51 37 -53 42 -2 4 -8 8
-14 8 -6 0 -34 15 -62 33 -51 33 -186 102 -261 132 -22 9 -49 20 -60 25 -53
23 -248 80 -291 85 -27 4 -65 11 -84 17 -42 13 -548 20 -605 9z"/>
</g>
</svg>
